<svg version="1.1" viewBox="0.0 0.0 960.0 720.0" fill="none" stroke="none" stroke-linecap="square" stroke-miterlimit="10" xmlns:xlink="http://www.w3.org/1999/xlink" xmlns="http://www.w3.org/2000/svg"><clipPath id="p.0"><path d="m0 0l960.0 0l0 720.0l-960.0 0l0 -720.0z" clip-rule="nonzero"/></clipPath><g clip-path="url(#p.0)"><path fill="#000000" fill-opacity="0.0" d="m0 0l960.0 0l0 720.0l-960.0 0z" fill-rule="evenodd"/><path fill="#a64d79" d="m331.38583 334.02887l0 0c0 -78.49402 66.536835 -142.12598 148.61417 -142.12598l0 0c39.414917 0 77.215515 14.973938 105.08606 41.62773c27.870605 26.653793 43.528137 62.804092 43.528137 100.498245l0 0c0 78.49402 -66.536865 142.12598 -148.6142 142.12598l0 0c-82.07733 0 -148.61417 -63.631958 -148.61417 -142.12598z" fill-rule="evenodd"/><path stroke="#000000" stroke-width="3.0" stroke-linejoin="round" stroke-linecap="butt" d="m331.38583 334.02887l0 0c0 -78.49402 66.536835 -142.12598 148.61417 -142.12598l0 0c39.414917 0 77.215515 14.973938 105.08606 41.62773c27.870605 26.653793 43.528137 62.804092 43.528137 100.498245l0 0c0 78.49402 -66.536865 142.12598 -148.6142 142.12598l0 0c-82.07733 0 -148.61417 -63.631958 -148.61417 -142.12598z" fill-rule="evenodd"/><path fill="#ffffff" d="m394.99213 288.57742l0 0c0 -29.484161 38.059326 -53.38582 85.00787 -53.38582l0 0c46.948547 0 85.00787 23.901657 85.00787 53.38582l0 0c0 29.484192 -38.059326 53.385834 -85.00787 53.385834l0 0c-46.948547 0 -85.00787 -23.901642 -85.00787 -53.385834z" fill-rule="evenodd"/><path stroke="#000000" stroke-width="3.0" stroke-linejoin="round" stroke-linecap="butt" d="m394.99213 288.57742l0 0c0 -29.484161 38.059326 -53.38582 85.00787 -53.38582l0 0c46.948547 0 85.00787 23.901657 85.00787 53.38582l0 0c0 29.484192 -38.059326 53.385834 -85.00787 53.385834l0 0c-46.948547 0 -85.00787 -23.901642 -85.00787 -53.385834z" fill-rule="evenodd"/><path fill="#ff9900" d="m461.1811 288.57742l0 0c0 -29.484161 8.425507 -53.38582 18.818909 -53.38582l0 0c4.991089 0 9.7777405 5.6245575 13.306976 15.636337c3.5292358 10.01178 5.5119324 23.590698 5.5119324 37.74948l0 0c0 29.484192 -8.425507 53.385834 -18.818909 53.385834l0 0c-4.991089 0 -9.7777405 -5.6245728 -13.306976 -15.636353c-3.5292358 -10.01178 -5.5119324 -23.590668 -5.5119324 -37.74948z" fill-rule="evenodd"/><path stroke="#000000" stroke-width="1.0" stroke-linejoin="round" stroke-linecap="butt" d="m461.1811 288.57742l0 0c0 -29.484161 8.425507 -53.38582 18.818909 -53.38582l0 0c4.991089 0 9.7777405 5.6245575 13.306976 15.636337c3.5292358 10.01178 5.5119324 23.590698 5.5119324 37.74948l0 0c0 29.484192 -8.425507 53.385834 -18.818909 53.385834l0 0c-4.991089 0 -9.7777405 -5.6245728 -13.306976 -15.636353c-3.5292358 -10.01178 -5.5119324 -23.590668 -5.5119324 -37.74948z" fill-rule="evenodd"/><path fill="#000000" d="m469.1811 288.57742l0 0c0 -22.308807 4.843811 -40.393692 10.818909 -40.393692l0 0c2.8693542 0 5.6211853 4.2557526 7.650116 11.831039c2.0289307 7.575287 3.1687927 17.849579 3.1687927 28.562653l0 0c0 22.308838 -4.843811 40.393707 -10.818909 40.393707l0 0c-2.8693542 0 -5.6211853 -4.255768 -7.650116 -11.831055c-2.0289307 -7.575287 -3.1687927 -17.849579 -3.1687927 -28.562653z" fill-rule="evenodd"/><path stroke="#000000" stroke-width="1.0" stroke-linejoin="round" stroke-linecap="butt" d="m469.1811 288.57742l0 0c0 -22.308807 4.843811 -40.393692 10.818909 -40.393692l0 0c2.8693542 0 5.6211853 4.2557526 7.650116 11.831039c2.0289307 7.575287 3.1687927 17.849579 3.1687927 28.562653l0 0c0 22.308838 -4.843811 40.393707 -10.818909 40.393707l0 0c-2.8693542 0 -5.6211853 -4.255768 -7.650116 -11.831055c-2.0289307 -7.575287 -3.1687927 -17.849579 -3.1687927 -28.562653z" fill-rule="evenodd"/><path fill="#000000" d="m565.8583 360.0l0 0c0 51.001526 -38.440063 92.346466 -85.85828 92.346466c-47.418213 0 -85.85828 -41.34494 -85.85828 -92.346466l0 0c20.268402 29.066711 52.077637 46.173218 85.85828 46.173218c33.78064 0 65.589905 -17.106506 85.85828 -46.173218z" fill-rule="evenodd"/><path stroke="#000000" stroke-width="3.0" stroke-linejoin="round" stroke-linecap="butt" d="m565.8583 360.0l0 0c0 51.001526 -38.440063 92.346466 -85.85828 92.346466c-47.418213 0 -85.85828 -41.34494 -85.85828 -92.346466l0 0c20.268402 29.066711 52.077637 46.173218 85.85828 46.173218c33.78064 0 65.589905 -17.106506 85.85828 -46.173218z" fill-rule="evenodd"/><path fill="#ffffff" d="m433.02362 444.34647l12.992126 -37.984253l12.992126 37.984253z" fill-rule="evenodd"/><path stroke="#000000" stroke-width="2.0" stroke-linejoin="round" stroke-linecap="butt" d="m433.02362 444.34647l12.992126 -37.984253l12.992126 37.984253z" fill-rule="evenodd"/><path fill="#ffffff" d="m467.00787 454.84778l12.992126 -37.984253l12.992126 37.984253z" fill-rule="evenodd"/><path stroke="#000000" stroke-width="2.0" stroke-linejoin="round" stroke-linecap="butt" d="m467.00787 454.84778l12.992126 -37.984253l12.992126 37.984253z" fill-rule="evenodd"/><path fill="#ffffff" d="m500.99213 444.34647l12.992126 -37.984253l12.992126 37.984253z" fill-rule="evenodd"/><path stroke="#000000" stroke-width="2.0" stroke-linejoin="round" stroke-linecap="butt" d="m500.99213 444.34647l12.992126 -37.984253l12.992126 37.984253z" fill-rule="evenodd"/><path fill="#ffffff" d="m477.99213 403.86353l-12.992126 37.984253l-12.992126 -37.984253z" fill-rule="evenodd"/><path stroke="#000000" stroke-width="2.0" stroke-linejoin="round" stroke-linecap="butt" d="m477.99213 403.86353l-12.992126 37.984253l-12.992126 -37.984253z" fill-rule="evenodd"/><path fill="#ffffff" d="m508.98425 403.86353l-12.992126 37.984253l-12.992126 -37.984253z" fill-rule="evenodd"/><path stroke="#000000" stroke-width="2.0" stroke-linejoin="round" stroke-linecap="butt" d="m508.98425 403.86353l-12.992126 37.984253l-12.992126 -37.984253z" fill-rule="evenodd"/><path fill="#ffffff" d="m544.98425 396.3622l-12.992126 37.984253l-12.992126 -37.984253z" fill-rule="evenodd"/><path stroke="#000000" stroke-width="2.0" stroke-linejoin="round" stroke-linecap="butt" d="m544.98425 396.3622l-12.992126 37.984253l-12.992126 -37.984253z" fill-rule="evenodd"/><path fill="#ffffff" d="m441.0 396.3622l-12.992126 37.984253l-12.992126 -37.984253z" fill-rule="evenodd"/><path stroke="#000000" stroke-width="2.0" stroke-linejoin="round" stroke-linecap="butt" d="m441.0 396.3622l-12.992126 37.984253l-12.992126 -37.984253z" fill-rule="evenodd"/></g></svg>